<svg viewBox="0 0 16 16" xmlns="http://www.w3.org/2000/svg" xmlns:xlink="http://www.w3.org/1999/xlink" width="16.000000" height="16.000000" fill="none">
	<rect id="call" width="16.000000" height="16.000000" x="0.000031" y="0.000000" fill="rgb(255,255,255)" fill-opacity="0" />
	<path id="Vector" d="M1.98869 5.70468C1.60669 4.66202 1.95669 3.51668 2.74202 2.73135L3.22802 2.24602C3.35868 2.11509 3.51387 2.01122 3.68472 1.94036C3.85557 1.86949 4.03872 1.83301 4.22369 1.83301C4.40865 1.83301 4.5918 1.86949 4.76265 1.94036C4.9335 2.01122 5.08869 2.11509 5.21935 2.24602L6.35735 3.38402C6.48828 3.51467 6.59214 3.66987 6.66301 3.84072C6.73388 4.01157 6.77036 4.19472 6.77036 4.37968C6.77036 4.56465 6.73388 4.7478 6.66301 4.91865C6.59214 5.08949 6.48828 5.24469 6.35735 5.37535L6.07735 5.65535C5.96528 5.7674 5.87637 5.90043 5.81571 6.04685C5.75506 6.19327 5.72384 6.3502 5.72384 6.50868C5.72384 6.66717 5.75506 6.8241 5.81571 6.97051C5.87637 7.11693 5.96528 7.24996 6.07735 7.36202L8.63735 9.92268C8.74941 10.0348 8.88244 10.1237 9.02886 10.1843C9.17527 10.245 9.3322 10.2762 9.49069 10.2762C9.64917 10.2762 9.8061 10.245 9.95252 10.1843C10.0989 10.1237 10.232 10.0348 10.344 9.92268L10.6247 9.64268C10.7553 9.51176 10.9105 9.40789 11.0814 9.33702C11.2522 9.26615 11.4354 9.22968 11.6204 9.22968C11.8053 9.22968 11.9885 9.26615 12.1593 9.33702C12.3302 9.40789 12.4854 9.51176 12.616 9.64268L13.754 10.7807C13.8849 10.9113 13.9888 11.0665 14.0597 11.2374C14.1305 11.4082 14.167 11.5914 14.167 11.7763C14.167 11.9613 14.1305 12.1445 14.0597 12.3153C13.9888 12.4862 13.8849 12.6414 13.754 12.772L13.2687 13.2573C12.4834 14.0433 11.338 14.3933 10.2954 14.0113C8.38825 13.317 6.65587 12.2144 5.21935 10.7807C3.78562 9.34417 2.68303 7.61178 1.98869 5.70468Z" fill-rule="nonzero" stroke="rgb(255,255,255)" stroke-linejoin="round" stroke-width="1.5" />
</svg>
