<svg viewBox="0 0 16 16" xmlns="http://www.w3.org/2000/svg" xmlns:xlink="http://www.w3.org/1999/xlink" width="16.000000" height="16.000000" fill="none">
	<rect id="copy" width="16.000000" height="16.000000" x="0.000000" y="0.000000" fill="rgb(255,255,255)" fill-opacity="0" />
	<g id="Group">
		<path id="Vector (Stroke)" d="M13.5 7.33331C13.5 6.37665 13.4987 5.70928 13.431 5.20571C13.3734 4.77754 13.2745 4.52535 13.127 4.34568L13.0605 4.27277C12.8763 4.08834 12.6169 3.96812 12.1276 3.90232C11.624 3.83463 10.9567 3.83331 10 3.83331L8 3.83331C7.04334 3.83331 6.37597 3.83463 5.8724 3.90232C5.44422 3.95991 5.19204 4.05883 5.01237 4.20636L4.93945 4.27277C4.75503 4.45699 4.63481 4.71646 4.56901 5.20571C4.50131 5.70928 4.5 6.37665 4.5 7.33331L4.5 10.6666C4.5 11.6233 4.50131 12.2907 4.56901 12.7943C4.63481 13.2835 4.75503 13.543 4.93945 13.7272L5.01237 13.7936C5.19204 13.9411 5.44422 14.0401 5.8724 14.0976C6.37597 14.1653 7.04334 14.1666 8 14.1666L10 14.1666C10.9567 14.1666 11.624 14.1653 12.1276 14.0976C12.6169 14.0318 12.8763 13.9116 13.0605 13.7272L13.127 13.6543C13.2745 13.4746 13.3734 13.2224 13.431 12.7943C13.4987 12.2907 13.5 11.6233 13.5 10.6666L13.5 7.33331ZM14.5 10.6666C14.5 11.5951 14.5013 12.342 14.4225 12.9277C14.3469 13.4903 14.1901 13.9698 13.8398 14.3581L13.7676 14.4342C13.3665 14.8357 12.861 15.0085 12.2611 15.0892C11.6753 15.1679 10.9285 15.1666 10 15.1666L8 15.1666C7.07153 15.1666 6.32466 15.1679 5.73893 15.0892C5.1763 15.0135 4.69685 14.8567 4.3086 14.5065L4.23242 14.4342C3.83099 14.0331 3.65816 13.5277 3.57748 12.9277C3.49872 12.342 3.5 11.5951 3.5 10.6666L3.5 7.33331C3.5 6.40484 3.49872 5.65797 3.57748 5.07225C3.65816 4.47227 3.83099 3.96682 4.23242 3.56574L4.3086 3.49347C4.69685 3.14324 5.1763 2.98645 5.73893 2.91079C6.32466 2.83203 7.07153 2.83331 8 2.83331L10 2.83331C10.9285 2.83331 11.6753 2.83203 12.2611 2.91079C12.861 2.99148 13.3665 3.16431 13.7676 3.56574L13.8398 3.64191C14.1901 4.03016 14.3469 4.50961 14.4225 5.07225C14.5013 5.65797 14.5 6.40484 14.5 7.33331L14.5 10.6666Z" fill="rgb(92,92,92)" fill-rule="nonzero" />
		<path id="Vector (Stroke)" d="M1.5 10.6666L1.5 6.66665C1.5 5.42379 1.49902 4.44105 1.60221 3.67381C1.70734 2.89236 1.92871 2.25973 2.42773 1.76105C2.92669 1.26252 3.55959 1.04074 4.34115 0.935527C5.10828 0.832284 6.09055 0.833313 7.33333 0.833313L10 0.833313C10.663 0.833313 11.2987 1.09689 11.7676 1.56574C12.2364 2.03458 12.5 2.67027 12.5 3.33331L11.5 3.33331C11.5 2.93549 11.3419 2.55407 11.0605 2.27277C10.7792 1.99146 10.3978 1.83331 10 1.83331L7.33333 1.83331C6.06244 1.83331 5.15957 1.83488 4.47461 1.92706C3.80412 2.01733 3.41713 2.18603 3.13477 2.46808C2.85261 2.75 2.68331 3.13656 2.5931 3.80727C2.50096 4.49236 2.5 5.39551 2.5 6.66665L2.5 10.6666C2.5 11.0645 2.65815 11.4459 2.93945 11.7272C3.22076 12.0085 3.60218 12.1666 4 12.1666L4 13.1666C3.33696 13.1666 2.70126 12.9031 2.23242 12.4342C1.76358 11.9654 1.5 11.3297 1.5 10.6666Z" fill="rgb(92,92,92)" fill-rule="nonzero" />
	</g>
</svg>
