<svg viewBox="0 0 24 24" xmlns="http://www.w3.org/2000/svg" xmlns:xlink="http://www.w3.org/1999/xlink" width="24.000000" height="24.000000" fill="none">
	<rect id="fi_11280638" width="24.000000" height="24.000000" x="0.000000" y="0.000000" fill="rgb(255,255,255)" fill-opacity="0" />
	<path id="Vector" d="M12.0007 23.6103C18.4028 23.6103 23.625 18.3947 23.625 11.9993C23.625 5.6039 18.4028 0.389717 12.0007 0.389717C5.59861 0.389717 0.375 5.60531 0.375 11.9993C0.375 18.3933 5.5972 23.6103 12.0007 23.6103Z" fill="rgb(251,133,0)" fill-rule="nonzero" />
	<path id="Vector" d="M12.0007 0.389717C5.5972 0.389717 0.375 5.60531 0.375 11.9993C0.375 18.3933 5.5972 23.6103 12.0007 23.6103C18.4042 23.6103 23.625 18.3947 23.625 11.9993C23.625 5.6039 18.4028 0.389717 12.0007 0.389717ZM12.0007 20.863C7.1122 20.863 3.12572 16.8816 3.12572 11.9992C3.12572 7.11694 7.1122 3.13551 12.0007 3.13551C16.8892 3.13551 20.8757 7.11834 20.8757 11.9992C20.8757 16.8802 16.8878 20.863 12.0007 20.863Z" fill="rgb(255,183,3)" fill-rule="nonzero" />
	<g id="Group">
		<path id="Vector" d="M17.8241 10.0717C17.7919 9.97238 17.7073 9.89911 17.6044 9.88135L13.9694 9.255L12.2495 5.99564C12.2008 5.90339 12.1051 5.84564 12.0008 5.84564C11.8964 5.84564 11.8007 5.90339 11.752 5.99564L10.0321 9.255L6.39709 9.88135C6.29419 9.89907 6.20959 9.97233 6.17734 10.0717C6.14509 10.1709 6.17049 10.2799 6.24334 10.3547L8.81504 12.9958L8.28882 16.642C8.27391 16.7453 8.31741 16.8484 8.40184 16.9097C8.45077 16.9453 8.5088 16.9634 8.56721 16.9634C8.60949 16.9634 8.65196 16.9539 8.69129 16.9345L12.0007 15.3068L15.3101 16.9345C15.4038 16.9806 15.5152 16.971 15.5996 16.9096C15.684 16.8483 15.7275 16.7453 15.7126 16.642L15.1864 12.9957L17.7581 10.3547C17.8309 10.2799 17.8563 10.1709 17.8241 10.0716L17.8241 10.0717Z" fill="rgb(252,210,39)" fill-rule="nonzero" />
		<g id="Group">
			<path id="Vector" d="M3.78711 3.79617L5.73027 5.73684C7.33794 4.13119 9.55653 3.13556 12.0007 3.13556L12.0007 0.389717C8.79927 0.389717 5.89306 1.69336 3.78711 3.79617Z" fill="rgb(252,210,39)" fill-rule="nonzero" />
			<path id="Vector" d="M20.2142 20.2024L18.271 18.2617C16.6632 19.8675 14.4443 20.863 12.0006 20.863L12.0006 23.6103C15.2019 23.6103 18.1083 22.3061 20.2141 20.2025L20.2142 20.2024Z" fill="rgb(252,210,39)" fill-rule="nonzero" />
			<path id="Vector" d="M20.2137 3.79678L18.2709 5.73713C19.8787 7.34292 20.8757 9.55885 20.8757 11.9993L23.625 11.9993C23.625 8.80233 22.3195 5.89992 20.2137 3.79678Z" fill="rgb(252,210,39)" fill-rule="nonzero" />
			<path id="Vector" d="M3.78652 20.203L5.73 18.262C4.12233 16.6563 3.12567 14.4404 3.12567 11.9993L0.375 11.9993C0.375 15.1969 1.68056 18.0997 3.78652 20.203Z" fill="rgb(252,210,39)" fill-rule="nonzero" />
		</g>
	</g>
</svg>
