<svg viewBox="0 0 30 30" xmlns="http://www.w3.org/2000/svg" xmlns:xlink="http://www.w3.org/1999/xlink" width="30.000000" height="30.000000" fill="none">
	<rect id="fi_9484251" width="30.000000" height="30.000000" x="0.000000" y="0.000000" fill="rgb(255,255,255)" fill-opacity="0" />
	<path id="Vector" d="M23.2031 3.80859C22.8046 3.67969 22.3828 3.59766 21.9492 3.55078C16.4179 2.98828 15 8.26172 15 8.26172C15 8.26172 13.582 2.98828 8.06246 3.55078C2.92965 4.06641 0.234338 10.5352 3.59762 15.9727C4.55856 17.5312 6.05856 19.207 7.66402 20.7656C10.8867 23.8945 14.5195 26.4961 15 26.4961C15.7265 26.4961 23.4961 20.6719 26.4023 15.9844C29.4843 11.0039 27.4921 5.15625 23.2031 3.80859Z" fill="rgb(237,28,36)" fill-rule="nonzero" />
	<path id="Vector" d="M26.4023 15.9727C29.4844 11.0039 27.4922 5.15625 23.2031 3.80859C23.2031 3.80859 27.4805 7.93359 25.0195 12.1758C22.5586 16.418 14.332 21.6914 13.1719 21.8789C12.2109 22.0312 9.77344 21.8086 7.66406 20.7773C10.8867 23.9062 14.5195 26.5078 15 26.5078C15.7266 26.4961 23.4961 20.6719 26.4023 15.9727Z" opacity="0.150000006" fill="rgb(0,0,0)" fill-rule="nonzero" />
	<path id="Vector" d="M2.91756 2.95271C4.52889 2.95271 5.83512 2.29173 5.83512 1.47636C5.83512 0.660987 4.52889 0 2.91756 0C1.30624 0 0 0.660987 0 1.47636C0 2.29173 1.30624 2.95271 2.91756 2.95271Z" opacity="0.300000012" fill="rgb(255,255,255)" fill-rule="evenodd" transform="matrix(0.64509,-0.764107,0.764107,0.64509,2.91992,8.9518)" />
</svg>
